<svg width="24" height="24" viewBox="0 0 24 24" fill="none" xmlns="http://www.w3.org/2000/svg">
<g clip-path="url(#clip0)">
<path d="M23.4665 20.8559L18.5194 15.909C19.7116 14.188 20.308 12.2694 20.308 10.1542C20.308 8.77923 20.0411 7.46421 19.5072 6.20946C18.9737 4.95451 18.2525 3.87283 17.3438 2.96417C16.4352 2.05552 15.3536 1.33428 14.0989 0.800717C12.8438 0.267001 11.5289 0.000167847 10.1539 0.000167847C8.77906 0.000167847 7.46404 0.267001 6.20929 0.800717C4.95434 1.33428 3.87266 2.05552 2.96401 2.96417C2.05525 3.87283 1.33411 4.95471 0.800498 6.20946C0.266833 7.46436 0 8.77923 0 10.1542C0 11.5291 0.266833 12.8437 0.800498 14.0988C1.33406 15.3535 2.05525 16.435 2.96401 17.3437C3.87266 18.2527 4.95454 18.9736 6.20929 19.5075C7.4642 20.0411 8.77906 20.3079 10.1539 20.3079C12.2696 20.3079 14.1879 19.7114 15.909 18.5193L20.8561 23.4519C21.2022 23.8171 21.6344 23.9999 22.154 23.9999C22.654 23.9999 23.0869 23.8172 23.452 23.4519C23.8173 23.0866 24 22.6539 24 22.1539C24.0002 21.6446 23.8223 21.2117 23.4665 20.8559ZM14.7189 14.7187C13.4545 15.9833 11.933 16.6155 10.1539 16.6155C8.37523 16.6155 6.85369 15.9831 5.58919 14.7187C4.32469 13.4543 3.69247 11.9329 3.69247 10.1539C3.69247 8.37519 4.32484 6.85341 5.58919 5.58916C6.85344 4.32461 8.37523 3.69243 10.1539 3.69243C11.9328 3.69243 13.4543 4.32486 14.7189 5.58916C15.9835 6.85341 16.6157 8.37519 16.6157 10.1539C16.6157 11.9329 15.9833 13.4543 14.7189 14.7187Z" fill="#989898"/>
</g>
<defs>
<clipPath id="clip0">
<rect width="24" height="24" fill="white"/>
</clipPath>
</defs>
</svg>
